<svg width="553" height="318" viewBox="0 0 553 318" fill="none" xmlns="http://www.w3.org/2000/svg">
<path d="M172.617 243.633C164.355 243.633 159.082 241.875 150.82 238.887L29.1797 191.602C9.31641 184.219 0 172.09 0 154.16C0 136.406 9.31641 124.629 29.1797 117.07L150.82 69.4336C159.082 66.2695 164.355 64.6875 172.617 64.6875C188.613 64.6875 198.633 77.3438 198.633 90.8789C198.633 104.414 191.953 113.73 176.66 118.301L71.3672 152.402V154.336L176.66 188.789C191.953 193.359 198.633 203.906 198.633 216.914C198.633 230.449 188.613 243.633 172.617 243.633ZM232.734 317.812C225.527 317.812 220.254 313.418 220.254 306.387C220.254 304.277 220.781 301.992 221.133 300.762L305.684 11.0742C307.793 3.69141 311.836 0 318.867 0C326.074 0 330.996 4.74609 330.996 11.6016C330.996 13.0078 330.996 14.0625 330.469 16.1719L245.215 307.617C243.281 314.121 239.062 317.812 232.734 317.812ZM379.512 243.633C363.516 243.633 353.496 230.449 353.496 216.914C353.496 203.906 360 193.359 375.469 188.789L480.762 154.863V152.93L375.469 118.301C360.176 113.73 353.496 104.414 353.496 90.8789C353.496 77.3438 363.516 64.6875 379.512 64.6875C387.773 64.6875 392.871 66.2695 401.309 69.4336L522.949 117.07C542.812 124.453 552.129 136.23 552.129 153.984C552.129 171.914 542.988 184.043 522.949 191.602L401.309 238.887C392.871 241.875 387.773 243.633 379.512 243.633Z" fill="url(#paint0_linear_3_60)"/>
<defs>
<linearGradient id="paint0_linear_3_60" x1="537.267" y1="166.816" x2="19.2773" y2="177.596" gradientUnits="userSpaceOnUse">
<stop stop-color="#009DDC"/>
<stop offset="0.2" stop-color="#963D97"/>
<stop offset="0.396295" stop-color="#E03A3E"/>
<stop offset="0.600536" stop-color="#F5821F"/>
<stop offset="0.797662" stop-color="#FDB827"/>
<stop offset="1" stop-color="#61BB46"/>
</linearGradient>
</defs>
</svg>
